<svg width="3164" height="1241" viewBox="0 0 3164 1241" fill="none" xmlns="http://www.w3.org/2000/svg">
<path d="M1843.3 244L1812.3 417H1640.3L1547.3 944H1368.3L1461.3 417H1288.3L1318.3 244H1843.3ZM2622.23 244L2499.23 944H2321.23L2387.23 566L2168.23 848H2150.23L2031.23 561L1964.23 944H1785.23L1908.23 244H2087.23L2201.23 546L2432.23 244H2622.23ZM3133.42 417H2882.42L2862.42 531H3107.42L3077.42 704H2831.42L2789.42 944H2610.42L2733.42 244H3163.42L3133.42 417Z" fill="black"/>
<path d="M482.363 1.24791C493.308 13.7694 493.308 13.7694 502.894 29.9548C513.435 46.2696 521.343 57.7462 540.427 64.1952C556.642 65.7347 556.642 65.7347 578.979 64.1008C578.979 81.6513 578.979 99.2017 578.979 117.284C559.849 118.88 540.719 120.475 521.01 122.119C529.676 122.225 529.676 122.225 538.518 122.332C559.937 122.613 581.354 122.986 602.771 123.388C612.044 123.549 621.317 123.684 630.591 123.794C643.915 123.956 657.235 124.209 670.557 124.48C676.785 124.526 676.785 124.526 683.138 124.573C687.006 124.669 690.874 124.765 694.858 124.863C698.259 124.917 701.659 124.971 705.163 125.026C716.93 127.524 721.476 132.019 728.734 141.458C727.224 151.128 727.224 151.128 723.903 160.798C723.903 179.268 728.459 181.434 741.113 194.339C781.271 238.436 818.455 302.222 821.142 363.577C820.937 366.862 820.731 370.146 820.519 373.53C823.67 374.116 826.821 374.702 830.068 375.306C853.303 379.765 875.543 384.659 897.812 392.87C897.7 389.367 897.588 385.865 897.472 382.256C897.385 377.582 897.298 372.907 897.208 368.091C897.096 363.492 896.984 358.892 896.869 354.153C897.812 339.687 897.812 339.687 902.643 325.484C908.132 308.66 908.437 295.081 908.078 277.438C907.99 271.866 907.903 266.294 907.813 260.554C907.701 256.353 907.589 252.153 907.474 247.825C910.662 246.229 913.85 244.634 917.135 242.99C926.797 250.242 926.797 250.242 936.459 262.329C937.062 281.366 937.062 281.366 936.194 290.866C935.847 301.409 935.847 301.409 941.063 311.811C947.819 329.674 948.327 346.422 949.139 365.372C949.326 368.952 949.513 372.533 949.705 376.222C950.158 384.992 950.559 393.766 950.951 402.539C956.207 403.599 961.462 404.658 966.877 405.75C1012.13 415.345 1050.35 428.256 1091.04 450.888C1098.38 454.237 1105.73 457.564 1113.08 460.86C1130.75 470.825 1136.82 475.756 1144.18 494.401C1150.06 521.667 1149.52 548.845 1149.01 576.594C1122.6 568.003 1122.6 568.003 1111.2 563.222C1066.95 544.858 1030.84 544.624 985.352 560.389C946.877 577.064 924.581 598.74 907.342 636.897C902.119 650.48 897.58 664.318 892.981 678.125C849.939 678.125 806.896 678.125 762.55 678.125C760.756 657.035 760.756 657.035 758.927 635.518C752.179 568.446 734.605 519.108 682.294 473.797C631.739 435.079 579.901 416.945 516.179 421.879C478.207 428.171 447.248 440.311 414.732 460.558C408.204 464.308 401.663 468.037 395.107 471.738C390.424 474.43 385.741 477.123 380.916 479.897C376.991 469.623 376.991 469.623 376.085 455.723C382.915 444.049 390.519 436.443 400.239 426.714C403.428 426.714 406.616 426.714 409.901 426.714C410.399 421.528 410.897 416.343 411.411 411C414.732 392.87 414.732 392.87 421.778 384.72C432.955 367.925 433.566 350.854 435.753 331.075C436.51 324.906 436.51 324.906 437.281 318.614C438.879 305.499 440.395 292.376 441.905 279.251C443.467 266.128 445.045 253.008 446.633 239.888C447.614 231.733 448.577 223.575 449.52 215.416C449.957 211.704 450.393 207.993 450.843 204.169C451.405 199.297 451.405 199.297 451.978 194.326C453.442 184.549 455.665 175.18 458.209 165.632C454.423 164.336 450.637 163.04 446.736 161.704C434.055 155.963 434.055 155.963 424.394 141.458C306.946 189.193 210.287 262.853 159.7 382.35C113.129 504.982 115.52 623.424 163.945 744.415C180.629 781.007 205.81 811.664 231.161 842.51C234.954 847.228 238.746 851.946 242.653 856.806C310.011 936.215 413.946 980.864 516.179 992.39C578.673 996.273 635.377 992.529 694.918 973.05C700.311 971.355 705.704 969.66 711.26 967.913C772.291 946.718 822.053 910.9 868.299 866.533C886.038 849.962 897.937 851.61 921.853 851.707C926.818 851.717 926.818 851.717 931.884 851.728C942.467 851.755 953.049 851.816 963.632 851.877C970.802 851.901 977.973 851.923 985.144 851.943C1002.73 851.997 1020.32 852.08 1037.91 852.179C1029.45 879.98 1029.45 879.98 1018.58 890.858C1009.83 891.972 1009.83 891.972 999.259 891.765C995.373 891.746 991.487 891.727 987.484 891.708C975.105 890.858 975.105 890.858 963.028 888.044C949.685 885.144 940.314 883.723 926.797 886.023C906.802 901.581 888.236 920.603 879.583 944.834C877.973 957.898 881.121 969.76 883.32 982.72C883.501 990.304 883.552 997.892 883.49 1005.48C883.465 1009.37 883.441 1013.27 883.415 1017.28C883.384 1020.23 883.352 1023.19 883.32 1026.23C819.317 1064.11 754.088 1098.42 680.426 1113.26C676.908 1113.99 673.389 1114.72 669.764 1115.47C659.895 1116.58 659.895 1116.58 641.78 1113.26C620.459 1095.8 607.601 1076.2 598.302 1050.41C548.64 1045.52 548.64 1045.52 503.663 1061.24C493.24 1073.61 485.886 1086.83 478.57 1101.21C467.871 1113.26 467.871 1113.26 458.763 1114.49C429.907 1112 402.158 1102.63 374.878 1093.32C370.446 1091.82 366.015 1090.32 361.449 1088.78C325.33 1076.18 292.786 1060.84 260.146 1040.74C256.416 1038.71 252.686 1036.69 248.843 1034.6C239.313 1028.95 239.313 1028.95 226.331 1016.56C221.729 996.622 226.143 978.01 231.161 958.546C233.577 941.624 233.577 941.624 231.161 924.702C220.403 913.991 220.403 913.991 207.007 905.363C202.374 898.931 202.374 898.931 197.648 892.369C184.739 877.884 177.761 878.25 158.699 876.354C147.613 876.745 136.534 877.453 125.488 878.469C119.921 878.961 114.353 879.453 108.618 879.961C104.42 880.366 100.223 880.771 95.899 881.188C47.4586 810.309 15.1265 735.264 2.03799 650.117C5.19801 633.873 14.3306 628.847 27.362 619.201C31.6774 615.941 35.9929 612.682 40.4391 609.323C49.1587 603.098 58.0021 597.044 66.9142 591.098C72.5638 565.889 75.3583 538.619 66.9142 513.741C57.7884 502.759 47.1689 495.428 35.212 487.753C5.21922 468.336 5.21922 468.336 0 454.438C0.953141 440.72 4.23445 429.99 8.94453 417.044C10.8127 411.26 12.6809 405.477 14.6056 399.518C35.6386 337.398 65.3508 278.74 100.73 223.65C106.851 224.504 112.972 225.358 119.279 226.238C165.28 232.688 165.28 232.688 208.121 219.458C221.525 205.758 232.251 192.46 240.823 175.302C240.391 161.334 239.692 147.531 238.71 133.602C238.331 127.787 238.331 127.787 237.945 121.854C237.318 112.271 236.658 102.69 235.992 93.1098C302.076 47.8715 399.386 -9.17993 482.363 1.24791ZM487.194 160.798C483.62 187.98 480.093 215.168 476.609 242.362C475.417 251.611 474.213 260.859 472.995 270.106C471.247 283.399 469.545 296.697 467.852 309.998C467.299 314.128 466.745 318.259 466.175 322.514C465.449 328.32 465.449 328.32 464.709 334.243C464.269 337.635 463.829 341.028 463.376 344.523C463.009 355.073 464.858 363.458 467.871 373.53C473.304 373.379 473.304 373.378 478.847 373.224C607.637 370.093 607.637 370.093 661.103 392.87C678.397 399.026 690.088 396.419 707.675 391.831C712.843 390.507 718.012 389.182 723.337 387.818C728.705 386.394 734.073 384.97 739.603 383.502C745.046 382.097 750.488 380.691 756.096 379.243C769.53 375.768 782.952 372.251 796.365 368.696C788.855 335.054 781.068 303.92 764.059 273.812C762.388 270.774 760.717 267.737 758.995 264.607C738.522 228.414 707.705 174.697 665.062 162.659C647.72 160.289 630.614 160.2 613.153 160.325C609.542 160.332 605.93 160.339 602.21 160.346C590.742 160.373 579.275 160.434 567.808 160.495C560.005 160.52 552.202 160.542 544.399 160.561C525.331 160.615 506.262 160.698 487.194 160.798Z" fill="url(#paint0_linear_987_12)"/>
<path d="M532.483 443.939C584.056 445.376 627.266 460.407 665.934 494.403C671.016 498.192 676.097 501.981 681.333 505.885C710.305 532.949 720.607 556.994 723.904 595.934C728.686 603.114 728.686 603.114 733.566 610.439C734.849 625.982 734.849 625.982 734.773 643.98C734.811 652.871 734.811 652.871 734.849 661.941C733.623 677.401 731.249 684.327 723.904 697.466C722.83 703.262 722.83 703.262 721.734 709.175C718.618 723.77 713.064 734.197 705.487 747.023C703.064 751.236 700.642 755.449 698.146 759.79C690.088 769.988 690.088 769.988 680.068 772.33C676.998 773.153 673.928 773.976 670.765 774.823C667.428 782.834 664.215 790.897 661.104 798.997C635.154 820.911 600.641 826.654 568.111 832.237C562.544 833.196 562.543 833.196 556.864 834.175C535.622 837.4 518.085 837.781 496.856 832.841C496.856 829.65 496.856 826.459 496.856 823.172C493.705 823.047 490.554 822.922 487.308 822.794C459.739 821.003 440.874 818.193 419.563 798.997C416.343 790.939 413.122 782.881 409.902 774.823C400.273 768.329 390.608 761.886 380.917 755.484C361.907 732.859 359.594 716.13 356.763 687.796C353.575 684.605 350.386 681.414 347.101 678.127C340.277 627.868 347.065 570.465 377.94 528.922C403.504 498.857 433.896 467.403 472.702 455.724C479.176 457.199 485.625 458.791 492.025 460.559C506.225 446.387 511.817 443.967 532.483 443.939ZM472.702 576.595C452.469 602.557 446.398 623.369 446.963 655.728C449.645 677.26 457.514 691.765 472.702 707.136C497.61 724.985 523.15 735.318 554.014 733.349C578.627 728.556 596.976 718.133 614.607 700.488C629.817 675.898 635.479 653.774 632.119 624.943C620.915 593.806 608.881 572.219 578.98 557.256C540.055 544.27 503.337 548.827 472.702 576.595Z" fill="url(#paint1_linear_987_12)"/>
<path d="M419.562 180.136C419.562 197.687 419.562 215.237 419.562 233.319C411.791 237.208 404.019 241.098 396.012 245.104C365.898 261.565 342.599 282.013 318.115 305.842C314.323 309.282 310.531 312.723 306.623 316.267C252.909 366.479 216.557 441.388 210.983 515.428C208.404 617.527 224.659 714.211 296.075 792.045C350.828 848.718 418.92 890 496.855 905.362C502.235 906.459 507.616 907.556 513.159 908.686C585.798 914.953 661.478 907.679 725.375 869.743C761.626 848.688 794.152 849.725 835.011 852.179C816.38 897.705 751.828 920.513 709.41 939.206C610.063 978.014 498.651 976.794 399.88 936.373C296.075 890.007 217.479 806.063 176.494 700.41C139.255 586.538 147.179 471.18 199.553 363.955C239.26 290.76 327.505 180.136 419.562 180.136Z" fill="url(#paint2_linear_987_12)"/>
<path d="M1131.2 598.954C1155.78 618.872 1172.14 646.979 1178 678.124C1181.76 724.756 1175.72 756.558 1145.99 792.952C1116.53 823.888 1090.41 833.714 1047.87 835.559C1005.36 834.138 975.656 821.136 946.422 790.232C922.197 759.581 914.177 731.044 915.475 692.006C919.985 654.31 932.796 623.218 961.273 597.707C1012.2 560.307 1080.04 564.177 1131.2 598.954ZM995.032 660.296C982.947 675.593 979.936 682.832 979.936 702.299C984.306 723.458 991.753 740.362 1007.71 755.18C1025.52 766.492 1036.17 769.986 1057.23 769.986C1077.51 762.426 1091.59 752.683 1105.54 736.142C1113.11 713.393 1113.02 694.918 1104.63 672.383C1091.96 652.706 1080.18 642.205 1057.83 634.913C1031.95 634.395 1014.85 644.34 995.032 660.296Z" fill="url(#paint3_linear_987_12)"/>
<defs>
<linearGradient id="paint0_linear_987_12" x1="0" y1="558.069" x2="926.573" y2="1041.69" gradientUnits="userSpaceOnUse">
<stop stop-color="#F9A244"/>
<stop offset="1" stop-color="#E73600"/>
</linearGradient>
<linearGradient id="paint1_linear_987_12" x1="0" y1="558.069" x2="926.573" y2="1041.69" gradientUnits="userSpaceOnUse">
<stop stop-color="#F9A244"/>
<stop offset="1" stop-color="#E73600"/>
</linearGradient>
<linearGradient id="paint2_linear_987_12" x1="0" y1="558.069" x2="926.573" y2="1041.69" gradientUnits="userSpaceOnUse">
<stop stop-color="#F9A244"/>
<stop offset="1" stop-color="#E73600"/>
</linearGradient>
<linearGradient id="paint3_linear_987_12" x1="0" y1="558.069" x2="926.573" y2="1041.69" gradientUnits="userSpaceOnUse">
<stop stop-color="#F9A244"/>
<stop offset="1" stop-color="#E73600"/>
</linearGradient>
</defs>
</svg>
